<?xml version="1.0" encoding="UTF-8" standalone="no"?>
<!-- Created with Inkscape (http://www.inkscape.org/) -->

<svg
   xmlns:dc="http://purl.org/dc/elements/1.1/"
   xmlns:cc="http://creativecommons.org/ns#"
   xmlns:rdf="http://www.w3.org/1999/02/22-rdf-syntax-ns#"
   xmlns:svg="http://www.w3.org/2000/svg"
   xmlns="http://www.w3.org/2000/svg"
   xmlns:sodipodi="http://sodipodi.sourceforge.net/DTD/sodipodi-0.dtd"
   xmlns:inkscape="http://www.inkscape.org/namespaces/inkscape"
   id="svg2985"
   version="1.1"
   inkscape:version="0.92.4 (5da689c313, 2019-01-14)"
   width="708.52155"
   height="228.59235"
   xml:space="preserve"
   sodipodi:docname="LecturePanda_exhibits_full_tightcrop_backdrop.svg"><metadata
     id="metadata2991"><rdf:RDF><cc:Work
         rdf:about=""><dc:format>image/svg+xml</dc:format><dc:type
           rdf:resource="http://purl.org/dc/dcmitype/StillImage" /><dc:title /></cc:Work></rdf:RDF></metadata><defs
     id="defs2989"><clipPath
       clipPathUnits="userSpaceOnUse"
       id="clipPath2999"><path
         d="M 0,150 H 500 V 0 H 0 Z"
         id="path3001"
         inkscape:connector-curvature="0" /></clipPath><filter
       style="color-interpolation-filters:sRGB"
       inkscape:label="Drop Shadow"
       id="filter4183"><feFlood
         flood-opacity="0.498039"
         flood-color="rgb(0,0,0)"
         result="flood"
         id="feFlood4185" /><feComposite
         in="flood"
         in2="SourceGraphic"
         operator="in"
         result="composite1"
         id="feComposite4187" /><feGaussianBlur
         in="composite1"
         stdDeviation="3"
         result="blur"
         id="feGaussianBlur4189" /><feOffset
         dx="3"
         dy="3"
         result="offset"
         id="feOffset4191" /><feComposite
         in="SourceGraphic"
         in2="offset"
         operator="over"
         result="composite2"
         id="feComposite4193" /></filter></defs><sodipodi:namedview
     pagecolor="#797edc"
     bordercolor="#666666"
     borderopacity="1"
     objecttolerance="1"
     gridtolerance="1"
     guidetolerance="1"
     inkscape:pageopacity="0"
     inkscape:pageshadow="2"
     inkscape:window-width="1920"
     inkscape:window-height="1001"
     id="namedview2987"
     showgrid="false"
     inkscape:zoom="1.3370805"
     inkscape:cx="212.02366"
     inkscape:cy="55.212512"
     inkscape:window-x="-9"
     inkscape:window-y="-9"
     inkscape:window-maximized="1"
     inkscape:current-layer="text5266"
     inkscape:snap-page="false"
     inkscape:snap-bbox="true"
     fit-margin-right="-50"
     fit-margin-top="0"
     fit-margin-left="-50"
     fit-margin-bottom="0"
     showborder="true"
     borderlayer="false"
     inkscape:showpageshadow="true" /><g
     inkscape:groupmode="layer"
     id="layer1"
     inkscape:label="LecturePanda 1"
     transform="translate(43.904531,45.698259)"
     style="display:inline"><rect
       style="display:inline;fill:#ffffff;fill-opacity:1;stroke:#000000;stroke-opacity:0;filter:url(#filter4183)"
       id="rect4181"
       width="614.51672"
       height="160.76852"
       x="-19.038385"
       y="-15.45068"
       rx="80.384262"
       ry="80.384262"
       transform="matrix(1.0964192,0,0,1.1848937,-5.6536868,-8.3414838)" /></g><g
     id="g2993"
     inkscape:groupmode="layer"
     inkscape:label="LecturePanda"
     transform="matrix(1.25,0,0,-1.25,19.236829,200.56423)"
     style="display:inline"><ellipse
       style="fill:#ffffff;fill-opacity:1;fill-rule:evenodd;stroke:#000000;stroke-width:1.129071px;stroke-linecap:butt;stroke-linejoin:miter;stroke-opacity:0"
       id="path3377"
       cx="48.929298"
       cy="-90.01828"
       transform="matrix(1,0,-0.03652415,-0.99933277,0,0)"
       rx="22.424162"
       ry="22.754997" /><g
       id="g2995"><g
         id="g2997"
         clip-path="url(#clipPath2999)"><g
           id="g3003"
           transform="translate(110.106,63.0132)"><path
             d="m 0,0 c 0,-7.076 0.192,-10.156 1.06,-11.023 0.769,-0.77 2.021,-1.108 5.775,-1.108 2.552,0 4.668,0.049 5.825,1.445 0.626,0.771 1.106,1.975 1.25,2.888 0.049,0.386 0.145,0.626 0.433,0.626 0.242,0 0.29,-0.192 0.29,-0.722 0,-0.528 -0.338,-3.418 -0.723,-4.814 -0.336,-1.106 -0.479,-1.299 -3.033,-1.299 -3.464,0 -5.967,0.097 -7.988,0.144 -2.022,0.097 -3.514,0.145 -4.91,0.145 -0.192,0 -1.012,-0.048 -1.974,-0.048 -0.962,-0.048 -2.021,-0.097 -2.745,-0.097 -0.528,0 -0.769,0.097 -0.769,0.385 0,0.145 0.096,0.29 0.385,0.29 0.434,0 1.011,0.096 1.445,0.191 0.961,0.192 1.202,1.251 1.395,2.648 0.241,2.021 0.241,5.825 0.241,10.444 v 8.473 c 0,7.51 0,8.856 -0.097,10.396 -0.095,1.638 -0.481,2.408 -2.068,2.745 -0.387,0.097 -1.205,0.145 -1.638,0.145 -0.191,0 -0.384,0.097 -0.384,0.289 0,0.288 0.239,0.384 0.769,0.384 2.166,0 5.198,-0.143 5.44,-0.143 0.24,0 3.753,0.143 5.198,0.143 0.53,0 0.771,-0.096 0.771,-0.384 0,-0.192 -0.193,-0.289 -0.385,-0.289 -0.338,0 -1.012,-0.048 -1.59,-0.145 C 0.578,21.468 0.192,20.649 0.096,18.964 0,17.424 0,16.078 0,8.568 Z"
             style="fill:#0079c7;fill-opacity:1;fill-rule:nonzero;stroke:none"
             id="path3005"
             inkscape:connector-curvature="0" /></g><g
           id="g3007"
           transform="translate(133.4512,68.2593)"><path
             d="m 0,0 c 0,6.355 0,7.509 -0.097,8.809 -0.095,1.398 -0.337,2.071 -1.732,2.263 -0.338,0.047 -1.06,0.096 -1.444,0.096 -0.145,0 -0.337,0.192 -0.337,0.336 0,0.242 0.192,0.337 0.673,0.337 1.925,0 4.668,-0.095 4.91,-0.095 0.289,0 9.145,-0.049 10.108,0 0.818,0.047 1.588,0.192 1.925,0.24 0.193,0.048 0.386,0.192 0.578,0.192 0.145,0 0.192,-0.192 0.192,-0.385 0,-0.289 -0.241,-0.768 -0.336,-1.924 C 14.392,9.484 14.294,7.653 14.199,7.172 14.15,6.979 14.006,6.739 13.813,6.739 c -0.239,0 -0.337,0.193 -0.337,0.529 0,0.289 -0.048,0.963 -0.24,1.444 -0.289,0.675 -0.722,0.964 -3.033,1.252 -0.722,0.097 -5.632,0.145 -6.113,0.145 -0.192,0 -0.24,-0.145 -0.24,-0.433 V -1.442 c 0,-0.29 0,-0.435 0.24,-0.435 0.53,0 6.113,0 7.076,0.097 1.012,0.097 1.636,0.145 2.07,0.577 0.289,0.289 0.482,0.53 0.626,0.53 0.144,0 0.24,-0.097 0.24,-0.337 0,-0.24 -0.24,-0.914 -0.336,-2.263 -0.097,-0.818 -0.192,-2.359 -0.192,-2.647 0,-0.336 -0.098,-0.769 -0.386,-0.769 -0.193,0 -0.289,0.144 -0.289,0.384 0,0.385 0,0.818 -0.193,1.348 -0.143,0.578 -0.528,1.059 -2.165,1.251 -1.155,0.144 -5.68,0.194 -6.403,0.194 -0.24,0 -0.288,-0.146 -0.288,-0.29 V -7.22 c 0,-1.395 -0.048,-6.16 0,-6.978 0.095,-2.744 0.866,-3.274 5.054,-3.274 1.106,0 3.129,0 4.236,0.432 1.107,0.482 1.685,1.205 1.926,2.842 0.095,0.481 0.192,0.624 0.433,0.624 0.24,0 0.288,-0.336 0.288,-0.624 0,-0.289 -0.336,-3.082 -0.577,-3.949 -0.29,-1.058 -0.723,-1.058 -2.36,-1.058 -3.177,0 -5.631,0.096 -7.364,0.145 -1.781,0.096 -2.887,0.096 -3.513,0.096 -0.097,0 -0.915,0 -1.83,-0.048 -0.818,-0.048 -1.781,-0.097 -2.455,-0.097 -0.433,0 -0.673,0.097 -0.673,0.337 0,0.145 0.096,0.337 0.337,0.337 0.385,0 0.914,0.145 1.298,0.192 0.819,0.145 0.916,0.963 1.109,2.167 C 0,-14.392 0,-11.167 0,-7.22 Z"
             style="fill:#0079c7;fill-opacity:1;fill-rule:nonzero;stroke:none"
             id="path3009"
             inkscape:connector-curvature="0" /></g><g
           id="g3011"
           transform="translate(160.3086,53.001)"><path
             d="m 0,0 c -4.139,3.562 -5.15,8.231 -5.15,12.129 0,2.745 1.011,7.511 4.765,11.168 2.552,2.455 6.403,4.382 12.899,4.382 1.686,0 4.092,-0.146 6.161,-0.483 1.589,-0.289 2.937,-0.577 4.334,-0.626 0.433,0 0.529,-0.193 0.529,-0.431 0,-0.338 -0.096,-0.82 -0.193,-2.313 -0.048,-1.347 -0.048,-3.61 -0.095,-4.186 -0.049,-0.626 -0.241,-0.867 -0.482,-0.867 -0.289,0 -0.337,0.289 -0.337,0.867 0,1.587 -0.674,3.225 -1.782,4.091 -1.491,1.251 -4.573,2.263 -8.328,2.263 -5.439,0 -8.036,-1.444 -9.529,-2.842 -3.128,-2.887 -3.802,-6.545 -3.802,-10.685 0,-7.845 6.209,-14.825 15.259,-14.825 3.175,0 5.294,0.239 6.98,1.925 0.912,0.915 1.49,2.647 1.634,3.417 0.097,0.433 0.146,0.578 0.434,0.578 0.193,0 0.385,-0.29 0.385,-0.578 0,-0.288 -0.578,-3.85 -1.011,-5.247 -0.24,-0.769 -0.337,-0.913 -1.059,-1.202 C 19.879,-4.14 16.702,-4.38 13.959,-4.38 7.605,-4.38 3.322,-2.889 0,0"
             style="fill:#0079c7;fill-opacity:1;fill-rule:nonzero;stroke:none"
             id="path3013"
             inkscape:connector-curvature="0" /></g><g
           id="g3015"
           transform="translate(203.0527,61.0396)"><path
             d="m 0,0 c 0,-3.947 0,-7.172 0.193,-8.856 0.142,-1.205 0.336,-1.975 1.635,-2.167 0.578,-0.096 1.541,-0.192 1.925,-0.192 0.289,0 0.337,-0.193 0.337,-0.337 0,-0.193 -0.193,-0.338 -0.674,-0.338 -2.31,0 -5.005,0.145 -5.246,0.145 -0.192,0 -3.129,-0.145 -4.38,-0.145 -0.481,0 -0.674,0.098 -0.674,0.338 0,0.144 0.097,0.289 0.337,0.289 0.385,0 0.865,0.096 1.251,0.193 0.866,0.192 1.107,1.009 1.253,2.214 0.191,1.684 0.191,4.909 0.191,8.856 v 17.184 l -6.112,-0.095 c -2.647,-0.049 -3.659,-0.338 -4.285,-1.301 -0.481,-0.723 -0.53,-1.012 -0.674,-1.3 -0.097,-0.337 -0.24,-0.384 -0.433,-0.384 -0.095,0 -0.288,0.095 -0.288,0.336 0,0.433 0.817,4.092 0.914,4.428 0.048,0.242 0.289,0.772 0.433,0.772 0.289,0 0.722,-0.338 1.878,-0.482 1.203,-0.145 2.839,-0.193 3.321,-0.193 H 6.881 c 1.398,0 2.36,0.096 3.034,0.193 0.626,0.096 1.011,0.192 1.203,0.192 0.194,0 0.194,-0.24 0.194,-0.482 0,-1.25 -0.146,-4.187 -0.146,-4.669 0,-0.337 -0.192,-0.528 -0.385,-0.528 -0.194,0 -0.288,0.143 -0.337,0.721 l -0.048,0.434 c -0.145,1.252 -1.058,2.167 -5.103,2.263 L 0,17.184 Z"
             style="fill:#0079c7;fill-opacity:1;fill-rule:nonzero;stroke:none"
             id="path3017"
             inkscape:connector-curvature="0" /></g><g
           id="g3019"
           transform="translate(221.0059,68.2593)"><path
             d="m 0,0 c 0,6.355 0,7.509 -0.098,8.809 -0.095,1.3 -0.336,2.071 -1.732,2.263 -0.337,0.047 -1.059,0.096 -1.444,0.096 -0.144,0 -0.337,0.192 -0.337,0.336 0,0.242 0.193,0.337 0.673,0.337 1.927,0 4.478,-0.095 4.863,-0.095 0.386,0 3.033,0.095 4.283,0.095 0.482,0 0.724,-0.095 0.724,-0.337 0,-0.144 -0.194,-0.336 -0.387,-0.336 -0.288,0 -0.53,0 -1.059,-0.096 C 4.38,10.88 4.139,10.158 4.042,8.809 3.947,7.509 3.947,6.355 3.947,0 v -5.728 c 0,-5.921 1.299,-8.374 3.129,-10.011 2.069,-1.878 3.898,-2.215 6.305,-2.215 2.599,0 5.101,1.156 6.546,2.89 1.973,2.357 2.406,5.727 2.406,9.913 V 0 c 0,6.355 -0.048,7.509 -0.095,8.809 -0.048,1.3 -0.291,2.071 -1.686,2.263 -0.335,0.047 -1.058,0.096 -1.444,0.096 -0.193,0 -0.336,0.192 -0.336,0.336 0,0.242 0.193,0.337 0.674,0.337 1.876,0 4.333,-0.095 4.572,-0.095 0.288,0 2.312,0.095 3.562,0.095 0.482,0 0.673,-0.095 0.673,-0.337 0,-0.144 -0.142,-0.336 -0.336,-0.336 -0.29,0 -0.53,0 -1.06,-0.096 C 25.704,10.832 25.464,10.158 25.365,8.809 25.271,7.509 25.318,6.355 25.318,0 v -4.379 c 0,-4.429 -0.578,-9.387 -3.947,-12.275 -3.081,-2.648 -6.355,-2.984 -8.857,-2.984 -1.395,0 -5.824,0.096 -8.808,2.888 C 1.637,-14.824 0,-11.986 0,-6.016 Z"
             style="fill:#0079c7;fill-opacity:1;fill-rule:nonzero;stroke:none"
             id="path3021"
             inkscape:connector-curvature="0" /></g><g
           id="g3023"
           transform="translate(262.0625,64.7939)"><path
             d="m 0,0 c 0,-0.24 0.096,-0.384 0.288,-0.53 0.626,-0.337 2.792,-0.625 4.671,-0.625 1.01,0 2.165,0.048 3.178,0.722 1.442,0.963 2.549,3.129 2.549,6.258 0,5.102 -2.791,8.038 -7.317,8.038 -1.249,0 -2.598,-0.145 -3.032,-0.24 C 0.144,13.526 0,13.382 0,13.142 Z m -3.658,3.465 c 0,6.355 0,7.51 -0.095,8.809 -0.096,1.398 -0.338,2.072 -1.733,2.263 -0.338,0.047 -1.06,0.096 -1.445,0.096 -0.143,0 -0.335,0.193 -0.335,0.337 0,0.241 0.192,0.336 0.672,0.336 1.927,0 4.766,-0.095 5.007,-0.095 0.433,0 3.994,0.095 5.294,0.095 2.695,0 5.679,-0.239 7.895,-1.78 1.056,-0.769 2.934,-2.744 2.934,-5.582 0,-3.035 -1.25,-5.969 -5.198,-9.34 3.466,-4.332 6.401,-8.038 8.856,-10.589 2.263,-2.31 3.66,-2.697 4.72,-2.84 0.815,-0.144 1.251,-0.144 1.49,-0.144 0.241,0 0.386,-0.193 0.386,-0.338 0,-0.24 -0.241,-0.337 -1.01,-0.337 h -2.648 c -2.407,0 -3.465,0.241 -4.527,0.819 -1.828,0.962 -3.367,2.937 -5.774,6.016 -1.782,2.214 -3.659,4.862 -4.573,5.97 -0.193,0.192 -0.289,0.241 -0.577,0.241 L 0.288,-2.503 C 0.096,-2.503 0,-2.598 0,-2.839 v -0.964 c 0,-3.947 0,-7.123 0.193,-8.807 0.144,-1.205 0.385,-1.975 1.686,-2.168 0.578,-0.095 1.49,-0.191 1.875,-0.191 0.29,0 0.338,-0.193 0.338,-0.338 0,-0.192 -0.192,-0.337 -0.673,-0.337 -2.312,0 -5.006,0.145 -5.198,0.145 -0.049,0 -2.888,-0.145 -4.19,-0.145 -0.433,0 -0.672,0.097 -0.672,0.337 0,0.145 0.095,0.338 0.336,0.338 0.385,0 0.914,0.096 1.3,0.191 0.818,0.193 0.914,0.963 1.106,2.168 0.241,1.684 0.241,4.909 0.241,8.856 z"
             style="fill:#0079c7;fill-opacity:1;fill-rule:nonzero;stroke:none"
             id="path3025"
             inkscape:connector-curvature="0" /></g><g
           id="g3027"
           transform="translate(290.751,68.2593)"><path
             d="m 0,0 c 0,6.355 0,7.509 -0.096,8.809 -0.097,1.398 -0.338,2.071 -1.734,2.263 -0.336,0.047 -1.057,0.096 -1.443,0.096 -0.144,0 -0.338,0.192 -0.338,0.336 0,0.242 0.194,0.337 0.674,0.337 1.925,0 4.67,-0.095 4.911,-0.095 0.288,0 9.145,-0.049 10.109,0 0.816,0.047 1.587,0.192 1.924,0.24 0.191,0.048 0.384,0.192 0.577,0.192 0.145,0 0.194,-0.192 0.194,-0.385 0,-0.289 -0.241,-0.768 -0.34,-1.924 C 14.391,9.484 14.297,7.653 14.198,7.172 14.15,6.979 14.007,6.739 13.813,6.739 c -0.241,0 -0.335,0.193 -0.335,0.529 0,0.289 -0.049,0.963 -0.243,1.444 -0.288,0.675 -0.718,0.964 -3.031,1.252 -0.722,0.097 -5.631,0.145 -6.114,0.145 -0.194,0 -0.241,-0.145 -0.241,-0.433 V -1.442 c 0,-0.29 0,-0.435 0.241,-0.435 0.531,0 6.114,0 7.077,0.097 1.01,0.097 1.636,0.145 2.068,0.577 0.289,0.289 0.483,0.53 0.627,0.53 0.145,0 0.242,-0.097 0.242,-0.337 0,-0.24 -0.242,-0.914 -0.338,-2.263 -0.096,-0.818 -0.194,-2.359 -0.194,-2.647 0,-0.336 -0.094,-0.769 -0.384,-0.769 -0.193,0 -0.289,0.144 -0.289,0.384 0,0.385 0,0.818 -0.193,1.348 -0.144,0.578 -0.529,1.059 -2.165,1.251 -1.155,0.144 -5.68,0.194 -6.402,0.194 -0.243,0 -0.29,-0.146 -0.29,-0.29 V -7.22 c 0,-1.395 -0.048,-6.16 0,-6.978 0.098,-2.744 0.866,-3.274 5.056,-3.274 1.107,0 3.128,0 4.236,0.432 1.106,0.482 1.684,1.205 1.924,2.842 0.098,0.481 0.192,0.624 0.433,0.624 0.241,0 0.289,-0.336 0.289,-0.624 0,-0.289 -0.336,-3.082 -0.576,-3.949 -0.289,-1.058 -0.721,-1.058 -2.359,-1.058 -3.177,0 -5.632,0.096 -7.365,0.145 -1.78,0.096 -2.887,0.096 -3.513,0.096 -0.098,0 -0.917,0 -1.829,-0.048 -0.82,-0.048 -1.782,-0.097 -2.456,-0.097 -0.433,0 -0.674,0.097 -0.674,0.337 0,0.145 0.098,0.337 0.336,0.337 0.385,0 0.917,0.145 1.301,0.192 0.818,0.145 0.914,0.963 1.107,2.167 C 0,-14.392 0,-11.167 0,-7.22 Z"
             style="fill:#0079c7;fill-opacity:1;fill-rule:nonzero;stroke:none"
             id="path3029"
             inkscape:connector-curvature="0" /></g><g
           id="g3031"
           transform="translate(321.7041,72.3936)"><path
             d="m 0,0 c 0,7.509 0,8.856 -0.094,10.396 -0.097,1.637 -0.483,2.408 -2.07,2.744 -0.387,0.096 -1.204,0.145 -1.639,0.145 -0.191,0 -0.383,0.096 -0.383,0.289 0,0.289 0.242,0.384 0.769,0.384 2.168,0 5.056,-0.143 5.441,-0.143 1.058,0 3.85,0.143 6.066,0.143 6.014,0 8.182,-2.02 8.951,-2.744 1.059,-1.011 2.406,-3.176 2.406,-5.728 0,-6.836 -5.003,-11.455 -11.841,-11.455 -0.24,0 -0.769,0 -1.008,0.049 -0.243,0 -0.532,0.095 -0.532,0.337 0,0.383 0.289,0.433 1.3,0.433 4.669,0 8.327,3.417 8.327,7.845 0,1.588 -0.145,4.814 -2.694,7.411 -2.553,2.601 -5.487,2.408 -6.595,2.408 -0.819,0 -1.637,-0.096 -2.07,-0.289 C 4.046,12.13 3.948,11.792 3.948,11.311 V -8.474 c 0,-4.619 0,-8.422 0.242,-10.443 0.144,-1.397 0.435,-2.456 1.876,-2.647 0.674,-0.098 1.734,-0.193 2.166,-0.193 0.288,0 0.387,-0.145 0.387,-0.289 0,-0.242 -0.241,-0.386 -0.77,-0.386 -2.649,0 -5.681,0.144 -5.922,0.144 -0.143,0 -3.176,-0.144 -4.62,-0.144 -0.531,0 -0.772,0.097 -0.772,0.386 0,0.144 0.097,0.289 0.387,0.289 0.432,0 1.011,0.095 1.444,0.193 0.961,0.191 1.202,1.25 1.396,2.647 C 0,-16.896 0,-13.093 0,-8.474 Z"
             style="fill:#0079c7;fill-opacity:1;fill-rule:nonzero;stroke:none"
             id="path3033"
             inkscape:connector-curvature="0" /></g><g
           id="g3035"
           transform="translate(360.2617,63.0547)"><path
             d="m 0,0 c 0.192,0 0.192,0.097 0.146,0.288 l -4.188,11.216 c -0.243,0.626 -0.483,0.626 -0.723,0 L -8.713,0.288 C -8.761,0.097 -8.713,0 -8.567,0 Z m -4.717,17.041 c 0.529,1.347 0.721,1.588 1.01,1.588 0.434,0 0.578,-0.579 1.013,-1.494 0.768,-1.732 7.555,-18.626 10.155,-24.835 1.541,-3.66 2.695,-4.19 3.609,-4.478 0.626,-0.192 1.252,-0.24 1.686,-0.24 0.241,0 0.53,-0.096 0.53,-0.337 0,-0.242 -0.482,-0.338 -0.964,-0.338 -0.626,0 -3.755,0 -6.691,0.096 -0.819,0.048 -1.49,0.048 -1.49,0.289 0,0.194 0.095,0.194 0.289,0.29 0.24,0.095 0.673,0.431 0.382,1.105 l -3.801,9.389 c -0.097,0.192 -0.144,0.24 -0.386,0.24 h -9.771 c -0.194,0 -0.335,-0.097 -0.432,-0.337 l -2.408,-6.546 c -0.384,-1.012 -0.625,-2.023 -0.625,-2.746 0,-0.818 0.722,-1.105 1.444,-1.105 h 0.384 c 0.337,0 0.435,-0.145 0.435,-0.337 0,-0.242 -0.243,-0.338 -0.627,-0.338 -1.011,0 -3.32,0.144 -3.802,0.144 -0.434,0 -2.551,-0.144 -4.285,-0.144 -0.53,0 -0.818,0.096 -0.818,0.338 0,0.192 0.193,0.337 0.385,0.337 0.29,0 0.915,0.048 1.252,0.095 1.925,0.241 2.745,1.685 3.563,3.756 z"
             style="fill:#0079c7;fill-opacity:1;fill-rule:nonzero;stroke:none"
             id="path3037"
             inkscape:connector-curvature="0" /></g><g
           id="g3039"
           transform="translate(380.9121,55.5459)"><path
             d="m 0,0 c 0.094,-3.37 0.479,-4.381 1.633,-4.669 0.772,-0.192 1.733,-0.24 2.12,-0.24 0.191,0 0.337,-0.145 0.337,-0.338 0,-0.241 -0.289,-0.337 -0.771,-0.337 -2.406,0 -4.091,0.144 -4.477,0.144 -0.385,0 -2.166,-0.144 -4.09,-0.144 -0.433,0 -0.675,0.049 -0.675,0.337 0,0.193 0.144,0.338 0.338,0.338 0.337,0 1.106,0.048 1.732,0.24 1.06,0.288 1.204,1.396 1.204,5.102 v 23.442 c 0,1.637 0.241,2.07 0.577,2.07 0.483,0 1.202,-0.819 1.637,-1.253 C 0.238,24.019 6.399,17.473 12.945,10.735 17.133,6.401 21.656,1.54 22.958,0.192 l -0.432,20.504 c -0.049,2.649 -0.291,3.565 -1.59,3.805 -0.771,0.143 -1.733,0.191 -2.068,0.191 -0.29,0 -0.34,0.242 -0.34,0.386 0,0.241 0.34,0.288 0.82,0.288 1.925,0 3.947,-0.096 4.428,-0.096 0.482,0 1.876,0.096 3.612,0.096 0.432,0 0.767,-0.047 0.767,-0.288 0,-0.144 -0.193,-0.386 -0.48,-0.386 -0.193,0 -0.529,0 -1.012,-0.096 -1.395,-0.287 -1.489,-1.107 -1.489,-3.561 L 25.075,-2.937 c 0,-2.695 -0.048,-2.937 -0.337,-2.937 -0.433,0 -0.867,0.339 -3.223,2.504 C 21.08,-2.984 14.967,3.032 10.491,7.7 5.581,12.852 0.816,17.859 -0.483,19.301 Z"
             style="fill:#0079c7;fill-opacity:1;fill-rule:nonzero;stroke:none"
             id="path3041"
             inkscape:connector-curvature="0" /></g><g
           id="g3043"
           transform="translate(422.1123,64.6421)"><path
             d="m 0,0 c 0,-4.331 0,-8.132 0.048,-8.904 0.047,-1.01 0.145,-2.503 0.481,-2.937 0.531,-0.769 2.023,-1.637 7.028,-1.637 3.899,0 7.363,1.301 9.916,3.708 2.214,2.069 3.322,5.969 3.322,9.723 0,5.198 -2.264,8.52 -3.995,10.252 -3.996,4.044 -8.665,4.574 -13.719,4.574 -0.817,0 -2.167,-0.144 -2.552,-0.289 C 0.145,14.346 0,14.153 0,13.671 Z m -3.851,4.429 c 0,6.354 0,7.509 -0.095,8.809 -0.096,1.397 -0.337,2.071 -1.734,2.262 -0.338,0.048 -1.059,0.096 -1.442,0.096 -0.146,0 -0.338,0.193 -0.338,0.337 0,0.241 0.192,0.337 0.673,0.337 1.927,0 4.668,-0.096 4.91,-0.096 0.481,0 3.175,0.096 5.68,0.096 4.235,0 11.985,0.385 16.992,-4.67 2.117,-2.117 4.138,-5.535 4.138,-10.395 0,-5.15 -2.212,-9.097 -4.572,-11.505 -1.83,-1.877 -5.631,-4.717 -12.851,-4.717 -1.83,0 -4.092,0.144 -5.92,0.241 -1.831,0.145 -3.275,0.24 -3.467,0.24 -0.097,0 -0.868,-0.048 -1.733,-0.048 -0.867,-0.047 -1.876,-0.096 -2.551,-0.096 -0.434,0 -0.673,0.096 -0.673,0.337 0,0.145 0.095,0.338 0.335,0.338 0.385,0 0.914,0.095 1.301,0.192 0.819,0.192 0.915,0.961 1.108,2.166 0.239,1.685 0.239,4.909 0.239,8.855 z"
             style="fill:#0079c7;fill-opacity:1;fill-rule:nonzero;stroke:none"
             id="path3045"
             inkscape:connector-curvature="0" /></g><g
           id="g3047"
           transform="translate(467.9365,63.0547)"><path
             d="m 0,0 c 0.191,0 0.191,0.097 0.145,0.288 l -4.189,11.216 c -0.24,0.626 -0.481,0.626 -0.721,0 L -8.713,0.288 C -8.761,0.097 -8.713,0 -8.567,0 Z m -4.719,17.041 c 0.532,1.347 0.725,1.588 1.013,1.588 0.433,0 0.578,-0.579 1.011,-1.494 0.771,-1.732 7.557,-18.626 10.157,-24.835 1.539,-3.66 2.694,-4.19 3.608,-4.478 0.627,-0.192 1.252,-0.24 1.685,-0.24 0.24,0 0.53,-0.096 0.53,-0.337 0,-0.242 -0.482,-0.338 -0.963,-0.338 -0.625,0 -3.753,0 -6.691,0.096 -0.819,0.048 -1.49,0.048 -1.49,0.289 0,0.194 0.094,0.194 0.288,0.29 0.24,0.095 0.675,0.431 0.383,1.105 l -3.801,9.389 c -0.095,0.192 -0.143,0.24 -0.386,0.24 h -9.77 c -0.193,0 -0.337,-0.097 -0.434,-0.337 l -2.406,-6.546 c -0.387,-1.012 -0.627,-2.023 -0.627,-2.746 0,-0.818 0.723,-1.105 1.444,-1.105 h 0.385 c 0.338,0 0.434,-0.145 0.434,-0.337 0,-0.242 -0.243,-0.338 -0.626,-0.338 -1.01,0 -3.319,0.144 -3.8,0.144 -0.436,0 -2.552,-0.144 -4.285,-0.144 -0.531,0 -0.819,0.096 -0.819,0.338 0,0.192 0.193,0.337 0.383,0.337 0.291,0 0.916,0.048 1.253,0.095 1.925,0.241 2.743,1.685 3.562,3.756 z"
             style="fill:#0079c7;fill-opacity:1;fill-rule:nonzero;stroke:none"
             id="path3049"
             inkscape:connector-curvature="0" /></g><g
           id="g3051"
           transform="translate(68.2388,104.7803)"><path
             d="M 0,0 C 1.988,1.899 6.694,2.319 7.673,4.989 8.828,8.144 5.963,12.303 3.965,13.746 -2.013,18.061 -6.192,11.237 -7.4,6.034 -4.482,4.403 -1.501,2.827 0,0"
             style="fill:#100f0d;fill-opacity:1;fill-rule:nonzero;stroke:none"
             id="path3053"
             inkscape:connector-curvature="0" /></g><g
           id="g3055"
           transform="translate(36.9771,104.3638)"><path
             d="M 0,0 C 1.838,2.355 4.029,4.293 6.75,5.607 4.198,8.972 4.387,18.008 -2.765,14.849 -5.099,13.818 -8.578,9.383 -8.171,5.881 -7.724,2.023 -2.589,2.231 0,0"
             style="fill:#100f0d;fill-opacity:1;fill-rule:nonzero;stroke:none"
             id="path3057"
             inkscape:connector-curvature="0" /></g><g
           id="g3059"
           transform="translate(63.064,82.0215)"><path
             d="M 0,0 C 1.33,2.147 4.142,2.727 4.169,5.824 4.196,9.01 -0.63,13.041 -3.75,13.417 -5.981,13.685 -7.187,10.674 -5.858,8.937 -3.867,6.336 -0.118,4.044 0,0"
             style="fill:#100f0d;fill-opacity:1;fill-rule:nonzero;stroke:none"
             id="path3061"
             inkscape:connector-curvature="0" /></g><g
           id="g3063"
           transform="translate(39.1963,88.2227)"><path
             d="m 0,0 c -0.206,-3.09 2.555,-3.878 3.72,-6.12 0.421,4.023 4.332,6.026 6.512,8.472 1.457,1.632 0.48,4.725 -1.765,4.626 C 5.327,6.836 0.211,3.178 0,0"
             style="fill:#100f0d;fill-opacity:1;fill-rule:nonzero;stroke:none"
             id="path3065"
             inkscape:connector-curvature="0" /></g><g
           id="g3067"
           transform="translate(87.4365,63.0654)"><path
             d="m 0,0 c 0.025,0.266 0.058,0.525 0.079,0.793 1.421,17.444 -6.078,31.628 -16.629,39.4 6.244,-8.501 4.728,-24.312 -4.221,-28.451 -1.404,-0.649 -4.234,-0.814 -5.639,-1.942 -1.339,-1.074 -3.04,-2.921 -5.082,-3.011 -6.64,-0.292 -5.956,-0.256 -10.069,3.083 -2.396,1.945 -7.512,1.257 -10.676,5.233 -3.944,4.955 -6.419,14.654 -1.942,23.147 -4.557,-6.714 -6.836,-14.305 -8.278,-22.421 -1.421,-8.003 -1.796,-17.005 -0.223,-24.069 2.254,-10.116 9.492,-20.209 15.395,-26.423 -4.477,12.318 0.118,28.759 12.842,28.484 19.067,-1.304 16.745,-27.529 10.437,-40.173 11.196,10.181 20.653,23.112 23.641,43.29"
             style="fill:#100f0d;fill-opacity:1;fill-rule:nonzero;stroke:none"
             id="path3069"
             inkscape:connector-curvature="0" /></g><g
           id="g3071"
           transform="translate(48.7598,79.8608)"><path
             d="m 0,0 c 0.958,-1.144 2.871,-2.021 4.261,-2.966 0.171,-0.446 0.116,-1.078 0.116,-1.078 -1.789,-1.275 -4.738,-1.763 -6.281,-0.545 1.131,-2.289 4.075,-1.223 6.776,-0.822 l -10e-4,0.007 c 2.708,-0.076 5.707,-0.733 6.538,1.653 -1.382,-1.398 -4.368,-1.278 -6.3,-0.232 0,0 -0.131,0.621 -0.017,1.085 1.263,1.108 3.054,2.213 3.864,3.466 C 8.091,1.783 5.891,0.352 4.454,0.083 V 0.08 C 2.99,0.199 0.697,1.291 0,0"
             style="fill:#100f0d;fill-opacity:1;fill-rule:nonzero;stroke:none"
             id="path3073"
             inkscape:connector-curvature="0" /></g><g
           id="g3075"
           transform="translate(42.9297,71.6133)"><path
             d="m 0,0 c 0,0 -4.396,-3.663 0,-13.188 3.686,2.107 8.325,6.595 10.583,6.594 3.047,0 9.931,-6.594 9.931,-6.594 0,0 5.862,7.327 0,13.188 -10.257,-7.326 -9.931,-6.594 -9.931,-6.594 z"
             style="fill:#0079c7;fill-opacity:1;fill-rule:evenodd;stroke:none"
             id="path3077"
             inkscape:connector-curvature="0" /></g><g
           id="g3079"
           transform="translate(71.6499,87.334)"><path
             d="m 0,0 c -0.754,-3.669 -1.711,-6.039 -5.677,-6.074 -2.776,0.026 -5.042,0.702 -6.753,2.376 -1.427,1.639 -2.087,3.85 -2.233,5.751 -0.17,2.201 0.644,3.416 2.663,3.838 0.872,0.182 1.79,0.305 2.768,0.359 2.189,0.116 5.008,-0.012 7.124,-0.674 C -1.351,5.338 -0.667,4.954 -0.164,4.279 0.452,3.45 0.407,1.615 0,0 m -22.71,2.068 c -0.147,-1.901 -0.806,-4.112 -2.234,-5.752 -1.71,-1.672 -3.977,-2.349 -6.753,-2.374 -3.966,0.034 -4.922,2.403 -5.676,6.072 -0.407,1.616 -0.454,3.453 0.163,4.28 0.503,0.675 1.188,1.058 1.945,1.295 2.115,0.663 4.935,0.792 7.125,0.674 0.976,-0.051 1.894,-0.176 2.767,-0.358 2.017,-0.421 2.833,-1.636 2.663,-3.837 M -5.968,8.356 C -9.699,8.568 -14.009,8.019 -18.684,7.78 l -0.002,0.014 c -4.677,0.239 -8.987,0.789 -12.719,0.575 -3.294,-0.187 -6.008,-1.055 -10.012,-2.035 l 0.105,-3.732 c 2.094,-0.575 1.828,-3.606 2.803,-5.767 0.348,-1.01 0.801,-1.9 1.395,-2.629 3.082,-3.777 11.072,-2.148 13.917,1.158 0.652,0.757 1.179,1.643 1.589,2.653 0.975,2.023 0.86,5.855 2.882,6.134 V 4.148 c 2.104,-0.19 1.974,-4.097 2.96,-6.146 0.41,-1.01 0.937,-1.896 1.589,-2.652 2.845,-3.308 10.836,-4.936 13.917,-1.16 0.594,0.729 1.046,1.62 1.396,2.63 0.974,2.161 0.708,5.193 2.802,5.768 L 4.043,6.319 C 0.039,7.299 -2.674,8.167 -5.968,8.356"
             style="fill:#79482a;fill-opacity:1;fill-rule:evenodd;stroke:none"
             id="path3081"
             inkscape:connector-curvature="0" /></g></g></g></g><g
     inkscape:groupmode="layer"
     id="layer2"
     inkscape:label="LecturePanda 2"
     transform="translate(-33.104862,13.526411)"
     style="display:inline"><g
   aria-label="Exhibits!"
   transform="rotate(-10)"
   style="font-style:normal;font-variant:normal;font-weight:normal;font-stretch:normal;font-size:192px;line-height:1.25;font-family:'Open Sans';-inkscape-font-specification:'Open Sans';letter-spacing:0px;word-spacing:0px;fill:#79482a;fill-opacity:1;stroke:#000000;stroke-width:1.00157475;stroke-linecap:square;stroke-linejoin:miter;stroke-miterlimit:4;stroke-dasharray:none;stroke-opacity:0.84375;paint-order:markers stroke fill"
   id="text5266"><path
     d="m 469.06375,231.54395 q 0,0.23437 -0.14062,0.63281 -0.11719,0.375 -0.35157,0.77344 -0.21093,0.39843 -0.49218,0.75 -0.28125,0.32812 -0.58594,0.46875 -0.60938,0.30468 -1.19531,0.44531 -0.5625,0.14062 -1.38282,0.30469 -2.15625,0.42187 -4.21875,0.70312 -2.0625,0.28125 -3.91406,0.46875 -1.82812,0.16406 -3.35156,0.23438 -1.52344,0.0703 -2.57813,0.0703 h -3.46875 q -0.75,0 -1.38281,0 -0.63281,0 -1.21875,-0.0469 -0.0703,0.77344 -0.14062,1.875 -0.0469,1.10157 -0.11719,2.25 -0.0703,1.14844 -0.14063,2.22657 -0.0703,1.05468 -0.1875,1.78125 0.63282,0.0703 1.47657,0.0937 0.86718,0.0234 1.66406,0.0234 1.14844,0 2.27344,-0.0703 1.14843,-0.0937 1.89843,-0.16406 0.375,-0.0469 1.17188,-0.0937 0.79687,-0.0469 1.6875,-0.11719 0.91406,-0.0703 1.75781,-0.16406 0.86719,-0.0937 1.35938,-0.21094 0.46875,-0.21094 0.86718,-0.375 0.42188,-0.16406 0.79688,-0.25781 0.39844,-0.11719 0.79687,-0.16406 0.42188,-0.0469 0.89063,-0.0469 0.63281,0 1.05469,0.25781 0.42187,0.23438 0.65625,0.65625 0.23437,0.39844 0.32812,0.9375 0.0937,0.51563 0.0937,1.07813 0,0.70312 -0.39844,1.14844 -0.375,0.44531 -0.9375,0.75 -0.5625,0.28125 -1.19531,0.44531 -0.60937,0.14062 -1.05469,0.23437 -0.39843,0.0937 -1.42968,0.1875 -1.00782,0.0937 -2.34375,0.21094 -1.33594,0.0937 -2.83594,0.1875 -1.47656,0.0937 -2.8125,0.16406 -1.33594,0.0469 -2.39063,0.0937 -1.03125,0.0469 -1.47656,0.0469 -0.72656,0 -1.33594,0.11719 -0.60937,0.11718 -1.28906,0.30468 -0.28125,1.125 -0.44531,2.4375 -0.16406,1.3125 -0.49219,2.74219 -0.11719,0.5625 -0.25781,1.14844 -0.11719,0.58594 -0.23438,1.125 -0.0937,0.51562 -0.16406,0.96094 -0.0703,0.44531 -0.0937,0.72656 0.49219,0 1.125,-0.0234 0.65625,-0.0234 1.35938,-0.0703 0.70312,-0.0469 1.40625,-0.0937 0.72656,-0.0703 1.35937,-0.14063 1.66406,-0.14062 2.83594,-0.23437 1.19531,-0.11719 2.13281,-0.1875 0.96094,-0.0937 1.75781,-0.1875 0.82032,-0.0937 1.75782,-0.23438 0.49218,-0.0703 1.17187,-0.14062 0.70313,-0.0703 1.42969,-0.14063 0.75,-0.0937 1.47656,-0.1875 0.75,-0.11718 1.35938,-0.28125 0.375,-0.0937 0.75,-0.23437 0.39843,-0.16406 0.79687,-0.30469 0.39844,-0.14062 0.79688,-0.23437 0.42187,-0.0937 0.84375,-0.0937 0.49218,0 0.9375,0.21093 0.46875,0.21094 0.82031,0.58594 0.35156,0.375 0.5625,0.91406 0.21094,0.51563 0.21094,1.125 0,0.21094 -0.23438,0.60938 -0.21094,0.375 -0.60937,0.77344 -0.375,0.375 -0.91407,0.70312 -0.53906,0.32813 -1.17187,0.44531 -2.0625,0.39844 -4.14844,0.63282 -2.08594,0.21093 -4.59375,0.53906 -1.80469,0.21094 -3.60937,0.42187 -1.80469,0.21094 -3.35157,0.42188 -1.54687,0.1875 -2.71875,0.35156 -1.17187,0.14063 -1.73437,0.25781 -0.53906,0.0937 -1.14844,0.25782 -0.60937,0.1875 -1.24219,0.35156 -0.60937,0.16406 -1.17187,0.28125 -0.5625,0.11719 -1.00781,0.11719 H 438.97 q -0.84375,0 -1.47656,-0.21094 -0.63281,-0.1875 -1.05469,-0.67969 -0.42187,-0.51562 -0.65625,-1.35937 -0.21094,-0.86719 -0.21094,-2.15625 0,-1.00782 0.25782,-2.22657 0.28125,-1.24218 0.60937,-2.95312 0.32813,-1.64063 0.63281,-3 0.30469,-1.35938 0.5625,-2.64844 0.28125,-1.28906 0.49219,-2.55469 0.23438,-1.28906 0.35156,-2.76562 0.0234,-0.16406 0.0703,-0.79688 0.0469,-0.63281 0.0937,-1.5 0.0703,-0.86718 0.14062,-1.85156 0.0703,-0.98437 0.14063,-1.85156 0.0703,-0.86719 0.0937,-1.5 0.0469,-0.63281 0.0469,-0.82031 0,-0.16407 -0.0469,-0.46875 -0.0469,-0.30469 -0.0469,-0.49219 0,-0.53906 0.1875,-1.17188 0.21094,-0.65625 0.63281,-1.33593 0.21094,-0.35157 0.72657,-0.70313 0.51562,-0.375 1.125,-0.67969 0.60937,-0.30468 1.21875,-0.49218 0.63281,-0.1875 1.07812,-0.1875 0.25781,0 0.79688,0.0937 0.5625,0.0937 1.14843,0.21093 0.60938,0.11719 1.14844,0.21094 0.53906,0.0937 0.77344,0.0937 0.53906,0 1.45312,0.0234 0.9375,0.0234 2.03907,0.0234 2.0625,0 4.14843,-0.14063 2.10938,-0.16406 4.26563,-0.51562 0.96094,-0.16407 1.80469,-0.42188 0.84375,-0.25781 1.64062,-0.49219 0.82031,-0.25781 1.64063,-0.42187 0.82031,-0.1875 1.73437,-0.1875 0.44531,0 0.89063,0.21094 0.44531,0.1875 0.79687,0.53906 0.375,0.32812 0.60938,0.75 0.23437,0.42187 0.23437,0.86719 z"
     style="font-style:normal;font-variant:normal;font-weight:bold;font-stretch:normal;font-size:48px;font-family:'Segoe Script';-inkscape-font-specification:'Segoe Script Bold';fill:#79482a;fill-opacity:1;stroke:#000000;stroke-width:1.00157475;stroke-linecap:square;stroke-linejoin:miter;stroke-miterlimit:4;stroke-dasharray:none;stroke-opacity:0.84375;paint-order:markers stroke fill"
     id="path4571"
     inkscape:connector-curvature="0" /><path
     d="m 508.69656,245.1377 q 0,0.42187 -0.30468,1.17187 -0.28125,0.75 -0.67969,1.54688 -0.39844,0.79687 -0.79688,1.5 -0.375,0.70312 -0.58593,1.05468 -0.75,1.26563 -1.66407,2.71875 -0.91406,1.45313 -1.99218,2.90625 -1.05469,1.42969 -2.29688,2.76563 -1.21875,1.3125 -2.60156,2.34375 -1.38281,1.00781 -2.95313,1.61719 -1.54687,0.60937 -3.25781,0.60937 -0.91406,0 -2.0625,-0.35156 -1.14844,-0.35156 -2.41406,-0.98438 -1.24219,-0.65625 -2.55469,-1.54687 -1.3125,-0.91406 -2.60156,-1.99219 -1.07813,0.9375 -1.875,1.85156 -0.77344,0.91407 -1.3125,1.78125 -0.53906,0.84375 -0.89063,1.61719 -0.35156,0.75 -0.58593,1.38281 -0.16407,0.46875 -0.375,1.00782 -0.21094,0.5625 -0.46875,1.125 -0.23438,0.5625 -0.51563,1.10156 -0.25781,0.53906 -0.53906,0.98437 -2.15625,-0.11718 -3.32813,-1.00781 -1.17187,-0.86719 -1.17187,-2.625 0,-0.9375 0.35156,-1.85156 0.375,-0.9375 0.96094,-1.82813 0.60937,-0.89062 1.40625,-1.78125 0.79687,-0.89062 1.64062,-1.75781 0.86719,-0.86719 1.73438,-1.73437 0.89062,-0.89063 1.66406,-1.75782 -1.125,-1.33593 -2.08594,-2.50781 -0.9375,-1.19531 -1.61718,-2.25 -0.67969,-1.05469 -1.05469,-1.96875 -0.375,-0.91406 -0.375,-1.6875 0,-1.75781 0.77344,-2.71875 0.77343,-0.96094 2.64843,-0.96094 0.9375,0 1.5,0.49219 0.5625,0.46875 0.89063,1.125 0.32812,0.63281 0.46875,1.3125 0.16406,0.65625 0.28125,1.03125 0.46875,1.45313 1.05469,2.69531 0.58593,1.21875 1.54687,2.32032 0.63281,-0.70313 1.28906,-1.45313 0.65625,-0.77344 1.26563,-1.47656 0.35156,-0.42188 0.82031,-1.00781 0.46875,-0.58594 0.9375,-1.21875 0.46875,-0.65625 0.86719,-1.33594 0.42187,-0.67969 0.65625,-1.26563 0.53906,-1.125 1.33594,-1.73437 0.82031,-0.60938 1.82812,-0.60938 0.53906,0 1.07813,0.23438 0.5625,0.21094 1.00781,0.63281 0.44531,0.39844 0.72656,0.9375 0.30469,0.53906 0.30469,1.17188 0,0.75 -0.70313,1.82812 -0.70312,1.05469 -2.39062,2.67188 -0.14063,0.14062 -0.60938,0.58593 -0.44531,0.44532 -1.05468,1.03125 -0.60938,0.58594 -1.28907,1.24219 -0.67968,0.65625 -1.26562,1.24219 -0.58594,0.5625 -1.03125,0.98437 -0.42188,0.39844 -0.51563,0.51563 0.63282,0.5625 1.54688,1.21875 0.9375,0.63281 1.92187,1.19531 0.98438,0.53906 1.92188,0.89063 0.9375,0.35156 1.59375,0.35156 0.86719,0 1.82812,-0.49219 0.98438,-0.49219 1.99219,-1.33594 1.00781,-0.84375 2.03906,-1.94531 1.03125,-1.10156 1.99219,-2.34375 0.96094,-1.24219 1.80469,-2.50781 0.86719,-1.28906 1.57031,-2.46094 0.51563,-0.89062 0.9375,-1.64062 0.42188,-0.75 0.77344,-1.28907 0.375,-0.5625 0.70312,-0.86718 0.35157,-0.32813 0.70313,-0.32813 0.375,0 0.63281,0.21094 0.28125,0.1875 0.44531,0.46875 0.1875,0.28125 0.28125,0.60937 0.0937,0.30469 0.0937,0.53907 z"
     style="font-style:normal;font-variant:normal;font-weight:bold;font-stretch:normal;font-size:48px;font-family:'Segoe Script';-inkscape-font-specification:'Segoe Script Bold';fill:#79482a;fill-opacity:1;stroke:#000000;stroke-width:1.00157475;stroke-linecap:square;stroke-linejoin:miter;stroke-miterlimit:4;stroke-dasharray:none;stroke-opacity:0.84375;paint-order:markers stroke fill"
     id="path4573"
     inkscape:connector-curvature="0" /><path
     d="m 545.77469,246.09863 q 0,0.35157 -0.35156,1.00782 -0.35157,0.65625 -0.91407,1.42968 -0.5625,0.77344 -1.26562,1.61719 -0.70313,0.82031 -1.38281,1.52344 -1.28907,1.3125 -2.76563,2.76562 -1.45312,1.42969 -3.09375,2.625 -1.61719,1.19532 -3.39844,1.96875 -1.78125,0.77344 -3.70312,0.77344 -1.52344,0 -2.625,-0.5625 -1.10156,-0.58594 -1.85156,-1.73437 -0.75,-1.14844 -1.19532,-2.83594 -0.44531,-1.6875 -0.65625,-3.91406 -0.0703,-0.86719 -0.16406,-1.57032 -0.0703,-0.72656 -0.16406,-1.24218 -0.0937,-0.51563 -0.23438,-0.79688 -0.11718,-0.28125 -0.30468,-0.28125 -0.65625,0 -1.75782,1.00781 -1.10156,1.00782 -2.55468,2.76563 -1.42969,1.75781 -3.14063,4.17187 -1.6875,2.39063 -3.53906,5.20313 -0.16406,0.23437 -0.63281,0.75 -0.44532,0.49219 -1.00782,1.00781 -0.53906,0.49219 -1.10156,0.86719 -0.5625,0.375 -0.91406,0.375 -0.60938,0 -1.21875,-0.11719 -0.58594,-0.11719 -1.05469,-0.375 -0.44531,-0.25781 -0.72656,-0.65625 -0.28125,-0.42187 -0.28125,-1.03125 0,-0.30469 0.0937,-0.91406 0.0937,-0.63281 0.21094,-1.3125 0.14062,-0.70313 0.25781,-1.35938 0.14062,-0.65625 0.23437,-1.00781 0.0469,-0.21094 0.16407,-0.89062 0.11718,-0.67969 0.28125,-1.66407 0.16406,-1.00781 0.375,-2.22656 0.21093,-1.21875 0.42187,-2.48437 0.21094,-1.26563 0.42188,-2.50782 0.21093,-1.26562 0.375,-2.32031 0.1875,-1.05469 0.30468,-1.82812 0.14063,-0.79688 0.1875,-1.14844 0.0234,-0.21094 0.14063,-0.98438 0.11719,-0.79687 0.25781,-1.875 0.14063,-1.07812 0.30469,-2.29687 0.1875,-1.21875 0.32812,-2.27344 0.14063,-1.07812 0.23438,-1.875 0.11719,-0.79687 0.14062,-1.00781 0.0703,-0.63281 0.32813,-1.38281 0.25781,-0.75 0.65625,-1.38282 0.39844,-0.65625 0.89062,-1.10156 0.51563,-0.44531 1.07813,-0.44531 0.49219,0 1.05469,0.21094 0.58593,0.1875 1.05468,0.60937 0.49219,0.42188 0.82032,1.07813 0.32812,0.65625 0.32812,1.57031 0,0.65625 -0.11719,1.59375 -0.11718,0.9375 -0.30468,1.99219 -0.16407,1.05468 -0.39844,2.15625 -0.21094,1.10156 -0.42188,2.10937 -0.21093,0.98438 -0.42187,1.82813 -0.1875,0.82031 -0.30469,1.3125 -0.1875,0.79687 -0.39844,1.64062 -0.21093,0.82031 -0.375,1.5 -0.0937,0.375 -0.28125,1.07813 -0.1875,0.70312 -0.42187,1.61718 -0.23438,0.91407 -0.51563,1.96875 -0.25781,1.05469 -0.53906,2.13282 -0.25781,1.05468 -0.51562,2.0625 -0.23438,1.00781 -0.39844,1.82812 0.84375,-1.3125 1.82812,-2.76562 1.00782,-1.47657 2.01563,-2.88282 1.00781,-1.40625 1.94531,-2.60156 0.96094,-1.21875 1.71094,-1.99219 0.79687,-0.82031 1.66406,-1.47656 0.86719,-0.67969 1.73438,-1.125 0.89062,-0.46875 1.73437,-0.70312 0.86719,-0.25782 1.61719,-0.25782 0.39844,0 0.84375,0.16407 0.44531,0.16406 0.84375,0.44531 0.42187,0.28125 0.75,0.67969 0.35156,0.39843 0.51562,0.89062 0.46875,1.26563 0.67969,2.57813 0.23438,1.3125 0.375,2.57812 0.11719,1.19531 0.30469,2.36719 0.1875,1.14844 0.42187,2.0625 0.25782,0.91406 0.53907,1.47656 0.28125,0.5625 0.60937,0.5625 1.05469,0 2.22656,-0.44531 1.19532,-0.44531 2.34375,-1.10156 1.14844,-0.67969 2.20313,-1.45313 1.05469,-0.79687 1.85156,-1.5 2.78906,-2.46094 4.47656,-3.9375 1.6875,-1.47656 2.32032,-1.5 0.44531,0 0.67968,0.32813 0.23438,0.32812 0.23438,0.86718 z"
     style="font-style:normal;font-variant:normal;font-weight:bold;font-stretch:normal;font-size:48px;font-family:'Segoe Script';-inkscape-font-specification:'Segoe Script Bold';fill:#79482a;fill-opacity:1;stroke:#000000;stroke-width:1.00157475;stroke-linecap:square;stroke-linejoin:miter;stroke-miterlimit:4;stroke-dasharray:none;stroke-opacity:0.84375;paint-order:markers stroke fill"
     id="path4575"
     inkscape:connector-curvature="0" /><path
     d="m 555.82938,230.8877 q 0,0.39843 -0.1875,0.96093 -0.16407,0.53907 -0.44532,1.14844 -0.28125,0.58594 -0.63281,1.19531 -0.35156,0.58594 -0.72656,1.05469 -0.375,0.46875 -0.70313,0.77344 -0.32812,0.28125 -0.58593,0.28125 -0.35157,0 -0.91407,-0.11719 -0.5625,-0.11719 -1.125,-0.35156 -0.53906,-0.25781 -0.9375,-0.60938 -0.39843,-0.35156 -0.39843,-0.82031 0,-0.35156 0.0937,-0.60937 0.11718,-0.25782 0.23437,-0.51563 0.14063,-0.28125 0.23438,-0.60937 0.11718,-0.32813 0.11718,-0.82032 0,-0.60937 0.1875,-1.14843 0.1875,-0.5625 0.53907,-0.96094 0.35156,-0.42188 0.84375,-0.65625 0.49218,-0.25781 1.125,-0.25781 0.30468,0 0.84375,0.0469 0.5625,0.0234 1.10156,0.21094 0.53906,0.1875 0.9375,0.60937 0.39844,0.42188 0.39844,1.19532 z m 11.92968,19.66406 q -0.23437,0.49219 -0.79687,1.26562 -0.5625,0.75 -1.26563,1.61719 -0.70312,0.86719 -1.47656,1.75781 -0.75,0.86719 -1.40625,1.57032 -2.15625,2.32031 -4.07812,4.03125 -1.89844,1.71093 -3.63282,2.83593 -1.71093,1.125 -3.25781,1.66407 -1.54687,0.53906 -2.97656,0.53906 -1.35938,0 -2.41406,-0.53906 -1.03125,-0.51563 -1.73438,-1.42969 -0.70312,-0.91406 -1.05469,-2.13281 -0.35156,-1.24219 -0.35156,-2.67188 0,-1.125 0.0703,-2.46094 0.0703,-1.33593 0.16407,-2.64843 0.11718,-1.33594 0.25781,-2.50782 0.14062,-1.17187 0.25781,-1.94531 0.0703,-0.35156 0.0937,-0.79687 0.0469,-0.44532 0.0703,-0.89063 0.0234,-0.46875 0.0234,-0.86719 0.0234,-0.42187 0.0234,-0.70312 0,-0.30469 0.23437,-0.9375 0.25782,-0.65625 0.70313,-1.3125 0.46875,-0.67969 1.125,-1.17188 0.65625,-0.51562 1.47656,-0.51562 1.33594,0 2.08594,0.53906 0.77344,0.53906 0.77344,1.96875 0,0.28125 -0.16407,0.96094 -0.14062,0.65625 -0.375,1.59375 -0.23437,0.9375 -0.51562,2.08594 -0.25781,1.125 -0.49219,2.36718 -0.23437,1.24219 -0.39844,2.53125 -0.14062,1.26563 -0.14062,2.46094 0,0.82031 0.0937,1.52344 0.0937,0.70312 0.25781,1.21875 0.16406,0.49219 0.375,0.77344 0.23438,0.28125 0.46875,0.28125 0.9375,0 1.92188,-0.30469 0.98437,-0.32813 2.17968,-1.14844 1.21875,-0.82031 2.76563,-2.25 1.54687,-1.45312 3.60937,-3.70312 0.72657,-0.77344 1.3125,-1.42969 0.60938,-0.65625 1.19532,-1.3125 0.60937,-0.65625 1.24218,-1.38281 0.65625,-0.72657 1.45313,-1.66407 0.1875,-0.25781 0.53906,-0.375 0.35156,-0.14062 0.72656,-0.14062 0.25782,0 0.53907,0.0937 0.28125,0.0703 0.49218,0.25781 0.23438,0.1875 0.375,0.53906 0.14063,0.32813 0.14063,0.86719 0,0.39844 -0.11719,0.89063 -0.0937,0.46875 -0.39844,1.00781 z"
     style="font-style:normal;font-variant:normal;font-weight:bold;font-stretch:normal;font-size:48px;font-family:'Segoe Script';-inkscape-font-specification:'Segoe Script Bold';fill:#79482a;fill-opacity:1;stroke:#000000;stroke-width:1.00157475;stroke-linecap:square;stroke-linejoin:miter;stroke-miterlimit:4;stroke-dasharray:none;stroke-opacity:0.84375;paint-order:markers stroke fill"
     id="path4577"
     inkscape:connector-curvature="0" /><path
     d="m 601.83719,244.52832 q 0,0.65625 -0.44531,1.42969 -0.44532,0.75 -1.21875,1.57031 -0.75,0.79688 -1.73438,1.61719 -0.96094,0.79687 -2.01562,1.59375 -1.05469,0.77344 -2.10938,1.5 -1.03125,0.72656 -1.94531,1.33594 -0.32813,0.23437 -1.24219,0.84375 -0.89062,0.60937 -2.0625,1.40625 -1.17187,0.79687 -2.50781,1.71093 -1.3125,0.89063 -2.50781,1.71094 -1.17188,0.79688 -2.0625,1.42969 -0.89063,0.63281 -1.24219,0.89062 -0.49219,0.375 -0.91406,0.77344 -0.42188,0.375 -0.86719,0.77344 -0.42188,0.39844 -0.96094,0.84375 -0.51562,0.44531 -1.21875,0.96094 -1.33594,1.00781 -3.23437,1.00781 -0.46875,0 -0.98438,-0.11719 -0.51562,-0.0937 -0.96094,-0.32812 -0.42187,-0.23438 -0.70312,-0.63282 -0.28125,-0.39843 -0.28125,-1.00781 0,-0.46875 0.35156,-1.00781 0.375,-0.53906 0.9375,-1.07813 0.58594,-0.53906 1.26563,-1.03125 0.70312,-0.51562 1.35937,-0.9375 0.65625,-0.44531 1.17188,-0.75 0.51562,-0.32812 0.75,-0.46875 1.07812,-0.67968 1.875,-1.19531 0.82031,-0.53906 1.5,-1.07812 0.67968,-0.53907 1.28906,-1.17188 0.63281,-0.65625 1.3125,-1.54687 0.375,-0.49219 0.72656,-1.10157 0.375,-0.60937 0.65625,-1.28906 0.30469,-0.67969 0.46875,-1.35937 0.1875,-0.70313 0.1875,-1.33594 0,-1.05469 -0.1875,-1.80469 -0.16406,-0.75 -0.44531,-1.21875 -0.28125,-0.49219 -0.65625,-0.72656 -0.35156,-0.23438 -0.72656,-0.23438 -0.9375,0 -1.875,0.44532 -0.9375,0.44531 -1.82813,1.17187 -0.89062,0.72656 -1.75781,1.66406 -0.84375,0.9375 -1.59375,1.92188 -0.75,0.96094 -1.40625,1.92187 -0.65625,0.9375 -1.17188,1.71094 -1.05468,1.54688 -1.61718,2.95313 -0.5625,1.40625 -0.60938,2.41406 l 0.0937,1.94531 q -0.0469,0.98438 -0.79687,1.52344 -0.75,0.53906 -1.80469,0.53906 -1.35938,0 -2.01563,-1.42969 -0.63281,-1.42968 -0.63281,-4.59375 0,-1.54687 0.16406,-3.35156 0.16407,-1.82812 0.39844,-3.75 0.25781,-1.94531 0.5625,-3.89062 0.30469,-1.96875 0.60938,-3.79688 0.0703,-0.42187 0.21093,-1.38281 0.16407,-0.98438 0.375,-2.22656 0.21094,-1.24219 0.42188,-2.60157 0.23437,-1.35937 0.42187,-2.57812 0.21094,-1.21875 0.375,-2.13281 0.16407,-0.91407 0.23438,-1.26563 0.14062,-0.67969 0.46875,-1.26562 0.35156,-0.58594 0.77344,-1.00782 0.42187,-0.42187 0.86718,-0.65625 0.46875,-0.23437 0.86719,-0.23437 0.86719,0 1.42969,0.21094 0.58594,0.1875 0.91406,0.5625 0.35156,0.35156 0.49219,0.89062 0.14062,0.53906 0.14062,1.21875 0,0.0234 -0.0937,0.46875 -0.0703,0.42188 -0.21093,1.05469 -0.11719,0.60937 -0.25782,1.33594 -0.14062,0.72656 -0.28125,1.35937 -0.11718,0.63281 -0.21093,1.07813 -0.0703,0.42187 -0.0937,0.46875 -0.39844,2.03906 -0.86719,4.03125 -0.46875,1.96875 -0.91406,3.79687 -0.42188,1.80469 -0.77344,3.35156 -0.35156,1.54688 -0.49219,2.69532 0.5625,-0.9375 1.33594,-1.92188 0.79687,-1.00781 1.6875,-1.94531 0.89062,-0.9375 1.80469,-1.75781 0.91406,-0.82032 1.71093,-1.38282 1.40625,-1.00781 2.67188,-1.47656 1.28906,-0.46875 2.625,-0.46875 1.47656,0 2.71875,0.70313 1.26562,0.70312 2.17969,1.82812 0.91406,1.125 1.42968,2.50781 0.51563,1.38282 0.51563,2.71875 0,0.23438 -0.0469,0.63282 -0.0469,0.39843 -0.16406,0.86718 -0.11719,0.46875 -0.30469,0.98438 -0.1875,0.49219 -0.46875,0.91406 1.19532,-0.86719 2.50782,-1.75781 1.33593,-0.91406 2.64843,-1.82813 1.33594,-0.9375 2.60157,-1.875 1.28906,-0.9375 2.41406,-1.85156 0.58594,-0.49219 1.125,-0.65625 0.5625,-0.16406 0.72656,-0.16406 0.67969,0.0469 0.91406,0.51562 0.23438,0.46875 0.23438,0.86719 z"
     style="font-style:normal;font-variant:normal;font-weight:bold;font-stretch:normal;font-size:48px;font-family:'Segoe Script';-inkscape-font-specification:'Segoe Script Bold';fill:#79482a;fill-opacity:1;stroke:#000000;stroke-width:1.00157475;stroke-linecap:square;stroke-linejoin:miter;stroke-miterlimit:4;stroke-dasharray:none;stroke-opacity:0.84375;paint-order:markers stroke fill"
     id="path4579"
     inkscape:connector-curvature="0" /><path
     d="m 608.16531,229.92676 q 0,0.77344 -0.23437,1.47656 -0.23438,0.67969 -0.67969,1.28906 -0.89062,1.24219 -2.74219,1.24219 -0.65625,0 -1.33593,-0.11719 -0.67969,-0.11718 -1.21875,-0.32812 -0.53907,-0.21094 -0.89063,-0.53906 -0.35156,-0.32813 -0.35156,-0.75 0,-0.72657 0.375,-1.52344 0.375,-0.82031 0.96094,-1.5 0.60937,-0.70313 1.3125,-1.14844 0.72656,-0.46875 1.38281,-0.46875 0.82031,0 1.45312,0.11719 0.63282,0.0937 1.05469,0.35156 0.44531,0.25781 0.67969,0.72656 0.23437,0.46875 0.23437,1.17188 z m 14.57813,19.28906 q 0,0.53906 -0.42188,1.38281 -0.39843,0.82032 -1.125,1.85157 -0.70312,1.00781 -1.6875,2.17968 -0.98437,1.14844 -2.13281,2.36719 -1.24219,1.33594 -2.69531,2.625 -1.45313,1.28906 -3.09375,2.48438 -1.61719,1.17187 -3.1875,1.82812 -1.57031,0.63281 -2.97656,0.63281 -1.64063,0 -2.85938,-0.53906 -1.19531,-0.5625 -2.0625,-1.5 -0.84375,-0.96094 -1.38281,-2.17969 -0.53906,-1.24218 -0.86719,-2.60156 -0.30469,-1.38281 -0.42187,-2.78906 -0.11719,-1.40625 -0.11719,-2.67188 0,-0.49218 0.0703,-1.47656 0.0703,-0.98437 0.1875,-2.0625 0.14063,-1.10156 0.28125,-2.10937 0.16406,-1.03125 0.32813,-1.61719 0.35156,-1.14844 1.61718,-2.17969 1.21875,-0.98437 2.71875,-0.98437 1.52344,0 1.52344,1.82812 0,0.86719 -0.16406,1.85156 -0.14063,0.96094 -0.32813,1.89844 -0.30468,1.71094 -0.42187,3.09375 -0.11719,1.35938 -0.11719,2.41406 0,1.19532 0.14063,2.32032 0.14062,1.125 0.39843,2.01562 0.28125,0.86719 0.67969,1.40625 0.42188,0.53906 0.98438,0.53906 0.70312,0 1.45312,-0.11718 0.75,-0.14063 1.80469,-0.70313 2.01562,-1.10156 4.28906,-2.97656 0.79688,-0.65625 1.80469,-1.54688 1.03125,-0.91406 2.03906,-1.85156 1.00781,-0.96094 1.89844,-1.875 0.89062,-0.91406 1.40625,-1.57031 0.0703,-0.11719 0.1875,-0.28125 0.14062,-0.1875 0.30469,-0.375 0.16406,-0.1875 0.35156,-0.30469 0.21094,-0.14062 0.39844,-0.14062 0.375,0 0.53906,0.11718 0.1875,0.0937 0.39844,0.63282 0.25781,0.58593 0.25781,0.98437 z"
     style="font-style:normal;font-variant:normal;font-weight:bold;font-stretch:normal;font-size:48px;font-family:'Segoe Script';-inkscape-font-specification:'Segoe Script Bold';fill:#79482a;fill-opacity:1;stroke:#000000;stroke-width:1.00157475;stroke-linecap:square;stroke-linejoin:miter;stroke-miterlimit:4;stroke-dasharray:none;stroke-opacity:0.84375;paint-order:markers stroke fill"
     id="path4581"
     inkscape:connector-curvature="0" /><path
     d="m 644.16531,243.75488 q 0,0.44532 -0.1875,0.82032 -0.1875,0.35156 -0.46875,0.65625 -0.28125,0.28125 -0.63281,0.51562 -0.32812,0.23438 -0.63281,0.42188 -1.05469,0.46875 -2.27344,0.82031 -1.19531,0.35156 -2.39062,0.60937 -1.19532,0.23438 -2.34375,0.39844 -1.125,0.16406 -2.08594,0.28125 -0.65625,0.0703 -1.38281,0.16406 -0.70313,0.0703 -1.38282,0.14063 -0.67968,0.0703 -1.26562,0.14062 -0.58594,0.0703 -1.00781,0.14063 -0.51563,1.99219 -0.98438,3.82031 -0.44531,1.82813 -0.77344,3.44531 -0.0469,0.28125 -0.14062,0.77344 -0.0937,0.49219 -0.21094,1.07813 -0.0937,0.58593 -0.1875,1.24218 -0.0937,0.63282 -0.1875,1.21875 -0.0703,0.5625 -0.11719,1.03125 -0.0469,0.44532 -0.0469,0.67969 0,0.82031 0.25781,1.17188 0.25781,0.32812 0.51563,0.53906 0.46875,0.375 0.77343,0.72656 0.32813,0.35156 0.32813,0.96094 0,0.46875 -0.32813,0.86719 -0.32812,0.42187 -0.82031,0.72656 -0.49219,0.30469 -1.05469,0.49219 -0.5625,0.1875 -1.05468,0.1875 -0.84375,0 -1.52344,-0.42188 -0.67969,-0.39844 -1.17188,-1.07812 -0.49218,-0.67969 -0.75,-1.54688 -0.25781,-0.86719 -0.25781,-1.78125 0,-1.54687 0.23438,-3.39844 0.23437,-1.85156 0.67968,-3.72656 0.1875,-0.82031 0.39844,-1.80469 0.23438,-0.98437 0.42188,-1.875 0.1875,-0.89062 0.32812,-1.57031 0.14063,-0.70312 0.1875,-0.9375 -0.49219,0.0234 -1.42969,0.14063 -0.91406,0.11718 -2.17968,0.11718 -1.05469,0 -1.78125,-0.11718 -0.72657,-0.14063 -1.19532,-0.49219 -0.46875,-0.35156 -0.67968,-0.96094 -0.21094,-0.60937 -0.21094,-1.59375 0,-0.5625 0.39844,-0.89062 0.39843,-0.35157 0.98437,-0.51563 0.58594,-0.1875 1.21875,-0.23437 0.63281,-0.0703 1.125,-0.0703 0.23438,0 0.82031,-0.0469 0.58594,-0.0703 1.26563,-0.11719 0.70312,-0.0703 1.33594,-0.11719 0.65625,-0.0703 1.00781,-0.0703 0.11719,0 0.28125,-0.44531 0.1875,-0.44531 0.375,-1.14844 0.1875,-0.70312 0.375,-1.54687 0.21094,-0.86719 0.39844,-1.6875 0.1875,-0.84375 0.32812,-1.54688 0.16406,-0.70312 0.25781,-1.10156 0.25782,-0.98438 0.42188,-2.20313 0.1875,-1.21875 0.53906,-2.29687 0.35156,-1.10156 0.98438,-1.82813 0.65625,-0.75 1.85156,-0.75 1.26562,0 1.875,0.5625 0.60937,0.53907 0.60937,1.80469 0,0.58594 -0.11718,1.38281 -0.0937,0.79688 -0.35157,1.59375 -0.5625,1.80469 -0.96093,3.375 -0.39844,1.57032 -0.65625,2.74219 -0.23438,1.14844 -0.35157,1.80469 -0.0937,0.65625 -0.0937,0.65625 0.96094,0 1.82813,0 0.89062,-0.0234 1.80469,-0.0469 0.91406,-0.0469 1.89843,-0.11718 1.00782,-0.0703 2.17969,-0.21094 1.35938,-0.16406 2.29688,-0.32813 0.9375,-0.16406 1.64062,-0.30468 0.72656,-0.14063 1.3125,-0.23438 0.58594,-0.0937 1.21875,-0.0937 0.32813,0 0.60938,0.1875 0.30468,0.16406 0.30468,0.82031 z"
     style="font-style:normal;font-variant:normal;font-weight:bold;font-stretch:normal;font-size:48px;font-family:'Segoe Script';-inkscape-font-specification:'Segoe Script Bold';fill:#79482a;fill-opacity:1;stroke:#000000;stroke-width:1.00157475;stroke-linecap:square;stroke-linejoin:miter;stroke-miterlimit:4;stroke-dasharray:none;stroke-opacity:0.84375;paint-order:markers stroke fill"
     id="path4583"
     inkscape:connector-curvature="0" /><path
     d="m 651.54813,258.73145 q 0,1.21875 -0.46875,2.41406 -0.44532,1.17187 -1.19532,2.22656 -0.75,1.05469 -1.73437,1.94531 -0.98438,0.89063 -2.03906,1.52344 -1.05469,0.63281 -2.10938,0.98438 -1.05469,0.375 -1.96875,0.375 -1.42969,0 -2.08594,-0.70313 -0.65625,-0.67969 -0.65625,-1.85156 0,-0.5625 0.16407,-1.07813 0.1875,-0.49218 0.51562,-0.86718 0.32813,-0.39844 0.79688,-0.60938 0.49218,-0.23437 1.10156,-0.23437 h 0.42187 q 0.46875,0 1.05469,-0.14063 0.58594,-0.14062 1.35938,-0.77344 0.67968,-0.5625 0.98437,-1.33593 0.32813,-0.79688 0.32813,-1.38282 0,-0.51562 -0.25782,-0.96093 -0.25781,-0.46875 -0.67968,-0.91407 -0.42188,-0.44531 -0.98438,-0.86718 -0.53906,-0.44532 -1.14844,-0.89063 -0.79687,-0.60937 -1.61718,-1.26562 -0.79688,-0.67969 -1.45313,-1.42969 -0.65625,-0.77344 -1.05469,-1.61719 -0.39843,-0.86719 -0.39843,-1.85156 0,-0.98438 0.35156,-2.0625 0.35156,-1.07813 0.9375,-2.13281 0.60937,-1.05469 1.38281,-1.99219 0.77344,-0.9375 1.59375,-1.66406 0.84375,-0.72657 1.6875,-1.14844 0.84375,-0.42188 1.57031,-0.42188 1.19532,0 1.80469,0.58594 0.63281,0.58594 0.63281,1.875 0,0.60938 -0.32812,1.26563 -0.30469,0.63281 -0.79688,1.26562 -0.46875,0.60938 -1.07812,1.19531 -0.58594,0.58594 -1.14844,1.07813 -0.49219,0.44531 -0.9375,0.72656 -0.42187,0.28125 -0.79687,0.60938 0.23437,0.42187 0.60937,0.86718 0.375,0.42188 0.82031,0.84375 0.44532,0.39844 0.89063,0.77344 0.46875,0.375 0.86719,0.70313 0.86718,0.70312 1.75781,1.47656 0.89062,0.77344 1.61719,1.64062 0.75,0.84375 1.21875,1.80469 0.46875,0.9375 0.46875,2.01563 z"
     style="font-style:normal;font-variant:normal;font-weight:bold;font-stretch:normal;font-size:48px;font-family:'Segoe Script';-inkscape-font-specification:'Segoe Script Bold';fill:#79482a;fill-opacity:1;stroke:#000000;stroke-width:1.00157475;stroke-linecap:square;stroke-linejoin:miter;stroke-miterlimit:4;stroke-dasharray:none;stroke-opacity:0.84375;paint-order:markers stroke fill"
     id="path4585"
     inkscape:connector-curvature="0" /><path
     d="m 661.32156,259.10645 q -0.0234,0.44531 -0.35156,2.03906 -0.0703,0.82031 -1.45312,1.80469 -1.17188,0.82031 -2.13282,0.82031 -2.57812,0 -2.57812,-2.85938 0,-0.46875 0.25781,-1.125 0.28125,-0.67968 0.72656,-1.28906 0.46875,-0.60937 1.05469,-1.03125 0.60938,-0.44531 1.28906,-0.44531 0.39844,0 0.9375,0.23437 0.5625,0.21094 1.05469,0.53907 0.49219,0.30468 0.84375,0.67968 0.35156,0.35157 0.35156,0.63282 z m 4.05469,-27.53907 q 0,0.28125 -0.16406,1.07813 -0.14063,0.79687 -0.375,1.89844 -0.21094,1.07812 -0.51563,2.34375 -0.28125,1.24218 -0.5625,2.4375 -0.5625,2.41406 -1.21875,4.875 -0.65625,2.4375 -0.98437,4.85156 -0.0469,0.5625 -0.0703,1.00781 0,0.44531 -0.0703,0.89063 -0.0469,0.44531 -0.21093,0.9375 -0.14063,0.46875 -0.49219,1.10156 -1.3125,0 -2.15625,-0.23438 -0.84375,-0.25781 -1.47656,-0.72656 -0.0469,-0.30469 -0.0703,-0.72656 0,-0.42188 0,-0.89063 0,-1.6875 0.14063,-3.67968 0.14062,-2.01563 0.58594,-4.10157 0.46875,-2.13281 0.79687,-4.10156 0.35156,-1.99219 0.35156,-3.72656 0,-0.65625 0.23438,-1.75781 0.0937,-0.5625 0.21094,-0.98438 0.11718,-0.42187 0.30468,-0.75 0.21094,-0.35156 0.51563,-0.63281 0.30469,-0.30469 0.79687,-0.63281 0.49219,-0.32813 0.91407,-0.49219 0.42187,-0.1875 0.86718,-0.1875 0.9375,0 1.71094,0.63281 0.44531,0.32813 0.67969,0.72656 0.25781,0.39844 0.25781,0.84375 z"
     style="font-style:normal;font-variant:normal;font-weight:bold;font-stretch:normal;font-size:48px;font-family:'Segoe Script';-inkscape-font-specification:'Segoe Script Bold';fill:#79482a;fill-opacity:1;stroke:#000000;stroke-width:1.00157475;stroke-linecap:square;stroke-linejoin:miter;stroke-miterlimit:4;stroke-dasharray:none;stroke-opacity:0.84375;paint-order:markers stroke fill"
     id="path4587"
     inkscape:connector-curvature="0" /></g>

</g></svg>